<svg xmlns="http://www.w3.org/2000/svg" width="1040" height="208">
  <rect width="1040" height="208" fill="white"/>
  <style>text { font-family: system-ui, sans-serif; font-size: 12px; fill: #4a5568; }</style>
  <text x="92" y="16" text-anchor="middle">Gen 0</text>
  <rect x="8" y="32" width="28" height="28" fill="#f7fafc" stroke="#e2e8f0" stroke-width="1" rx="4"/>
  <rect x="36" y="32" width="28" height="28" fill="#2d3748" stroke="#e2e8f0" stroke-width="1" rx="4"/>
  <rect x="64" y="32" width="28" height="28" fill="#f7fafc" stroke="#e2e8f0" stroke-width="1" rx="4"/>
  <rect x="92" y="32" width="28" height="28" fill="#f7fafc" stroke="#e2e8f0" stroke-width="1" rx="4"/>
  <rect x="120" y="32" width="28" height="28" fill="#f7fafc" stroke="#e2e8f0" stroke-width="1" rx="4"/>
  <rect x="148" y="32" width="28" height="28" fill="#f7fafc" stroke="#e2e8f0" stroke-width="1" rx="4"/>
  <rect x="8" y="60" width="28" height="28" fill="#f7fafc" stroke="#e2e8f0" stroke-width="1" rx="4"/>
  <rect x="36" y="60" width="28" height="28" fill="#f7fafc" stroke="#e2e8f0" stroke-width="1" rx="4"/>
  <rect x="64" y="60" width="28" height="28" fill="#2d3748" stroke="#e2e8f0" stroke-width="1" rx="4"/>
  <rect x="92" y="60" width="28" height="28" fill="#f7fafc" stroke="#e2e8f0" stroke-width="1" rx="4"/>
  <rect x="120" y="60" width="28" height="28" fill="#f7fafc" stroke="#e2e8f0" stroke-width="1" rx="4"/>
  <rect x="148" y="60" width="28" height="28" fill="#f7fafc" stroke="#e2e8f0" stroke-width="1" rx="4"/>
  <rect x="8" y="88" width="28" height="28" fill="#2d3748" stroke="#e2e8f0" stroke-width="1" rx="4"/>
  <rect x="36" y="88" width="28" height="28" fill="#2d3748" stroke="#e2e8f0" stroke-width="1" rx="4"/>
  <rect x="64" y="88" width="28" height="28" fill="#2d3748" stroke="#e2e8f0" stroke-width="1" rx="4"/>
  <rect x="92" y="88" width="28" height="28" fill="#f7fafc" stroke="#e2e8f0" stroke-width="1" rx="4"/>
  <rect x="120" y="88" width="28" height="28" fill="#f7fafc" stroke="#e2e8f0" stroke-width="1" rx="4"/>
  <rect x="148" y="88" width="28" height="28" fill="#f7fafc" stroke="#e2e8f0" stroke-width="1" rx="4"/>
  <rect x="8" y="116" width="28" height="28" fill="#f7fafc" stroke="#e2e8f0" stroke-width="1" rx="4"/>
  <rect x="36" y="116" width="28" height="28" fill="#f7fafc" stroke="#e2e8f0" stroke-width="1" rx="4"/>
  <rect x="64" y="116" width="28" height="28" fill="#f7fafc" stroke="#e2e8f0" stroke-width="1" rx="4"/>
  <rect x="92" y="116" width="28" height="28" fill="#f7fafc" stroke="#e2e8f0" stroke-width="1" rx="4"/>
  <rect x="120" y="116" width="28" height="28" fill="#f7fafc" stroke="#e2e8f0" stroke-width="1" rx="4"/>
  <rect x="148" y="116" width="28" height="28" fill="#f7fafc" stroke="#e2e8f0" stroke-width="1" rx="4"/>
  <rect x="8" y="144" width="28" height="28" fill="#f7fafc" stroke="#e2e8f0" stroke-width="1" rx="4"/>
  <rect x="36" y="144" width="28" height="28" fill="#f7fafc" stroke="#e2e8f0" stroke-width="1" rx="4"/>
  <rect x="64" y="144" width="28" height="28" fill="#f7fafc" stroke="#e2e8f0" stroke-width="1" rx="4"/>
  <rect x="92" y="144" width="28" height="28" fill="#f7fafc" stroke="#e2e8f0" stroke-width="1" rx="4"/>
  <rect x="120" y="144" width="28" height="28" fill="#f7fafc" stroke="#e2e8f0" stroke-width="1" rx="4"/>
  <rect x="148" y="144" width="28" height="28" fill="#f7fafc" stroke="#e2e8f0" stroke-width="1" rx="4"/>
  <rect x="8" y="172" width="28" height="28" fill="#f7fafc" stroke="#e2e8f0" stroke-width="1" rx="4"/>
  <rect x="36" y="172" width="28" height="28" fill="#f7fafc" stroke="#e2e8f0" stroke-width="1" rx="4"/>
  <rect x="64" y="172" width="28" height="28" fill="#f7fafc" stroke="#e2e8f0" stroke-width="1" rx="4"/>
  <rect x="92" y="172" width="28" height="28" fill="#f7fafc" stroke="#e2e8f0" stroke-width="1" rx="4"/>
  <rect x="120" y="172" width="28" height="28" fill="#f7fafc" stroke="#e2e8f0" stroke-width="1" rx="4"/>
  <rect x="148" y="172" width="28" height="28" fill="#f7fafc" stroke="#e2e8f0" stroke-width="1" rx="4"/>
  <path d="M 191 116 L 207 116 M 203 112 L 207 116 L 203 120" stroke="#a0aec0" stroke-width="2" fill="none"/>
  <text x="306" y="16" text-anchor="middle">Gen 1</text>
  <rect x="222" y="32" width="28" height="28" fill="#f7fafc" stroke="#e2e8f0" stroke-width="1" rx="4"/>
  <rect x="250" y="32" width="28" height="28" fill="#f7fafc" stroke="#e2e8f0" stroke-width="1" rx="4"/>
  <rect x="278" y="32" width="28" height="28" fill="#f7fafc" stroke="#e2e8f0" stroke-width="1" rx="4"/>
  <rect x="306" y="32" width="28" height="28" fill="#f7fafc" stroke="#e2e8f0" stroke-width="1" rx="4"/>
  <rect x="334" y="32" width="28" height="28" fill="#f7fafc" stroke="#e2e8f0" stroke-width="1" rx="4"/>
  <rect x="362" y="32" width="28" height="28" fill="#f7fafc" stroke="#e2e8f0" stroke-width="1" rx="4"/>
  <rect x="222" y="60" width="28" height="28" fill="#2d3748" stroke="#e2e8f0" stroke-width="1" rx="4"/>
  <rect x="250" y="60" width="28" height="28" fill="#f7fafc" stroke="#e2e8f0" stroke-width="1" rx="4"/>
  <rect x="278" y="60" width="28" height="28" fill="#2d3748" stroke="#e2e8f0" stroke-width="1" rx="4"/>
  <rect x="306" y="60" width="28" height="28" fill="#f7fafc" stroke="#e2e8f0" stroke-width="1" rx="4"/>
  <rect x="334" y="60" width="28" height="28" fill="#f7fafc" stroke="#e2e8f0" stroke-width="1" rx="4"/>
  <rect x="362" y="60" width="28" height="28" fill="#f7fafc" stroke="#e2e8f0" stroke-width="1" rx="4"/>
  <rect x="222" y="88" width="28" height="28" fill="#f7fafc" stroke="#e2e8f0" stroke-width="1" rx="4"/>
  <rect x="250" y="88" width="28" height="28" fill="#2d3748" stroke="#e2e8f0" stroke-width="1" rx="4"/>
  <rect x="278" y="88" width="28" height="28" fill="#2d3748" stroke="#e2e8f0" stroke-width="1" rx="4"/>
  <rect x="306" y="88" width="28" height="28" fill="#f7fafc" stroke="#e2e8f0" stroke-width="1" rx="4"/>
  <rect x="334" y="88" width="28" height="28" fill="#f7fafc" stroke="#e2e8f0" stroke-width="1" rx="4"/>
  <rect x="362" y="88" width="28" height="28" fill="#f7fafc" stroke="#e2e8f0" stroke-width="1" rx="4"/>
  <rect x="222" y="116" width="28" height="28" fill="#f7fafc" stroke="#e2e8f0" stroke-width="1" rx="4"/>
  <rect x="250" y="116" width="28" height="28" fill="#2d3748" stroke="#e2e8f0" stroke-width="1" rx="4"/>
  <rect x="278" y="116" width="28" height="28" fill="#f7fafc" stroke="#e2e8f0" stroke-width="1" rx="4"/>
  <rect x="306" y="116" width="28" height="28" fill="#f7fafc" stroke="#e2e8f0" stroke-width="1" rx="4"/>
  <rect x="334" y="116" width="28" height="28" fill="#f7fafc" stroke="#e2e8f0" stroke-width="1" rx="4"/>
  <rect x="362" y="116" width="28" height="28" fill="#f7fafc" stroke="#e2e8f0" stroke-width="1" rx="4"/>
  <rect x="222" y="144" width="28" height="28" fill="#f7fafc" stroke="#e2e8f0" stroke-width="1" rx="4"/>
  <rect x="250" y="144" width="28" height="28" fill="#f7fafc" stroke="#e2e8f0" stroke-width="1" rx="4"/>
  <rect x="278" y="144" width="28" height="28" fill="#f7fafc" stroke="#e2e8f0" stroke-width="1" rx="4"/>
  <rect x="306" y="144" width="28" height="28" fill="#f7fafc" stroke="#e2e8f0" stroke-width="1" rx="4"/>
  <rect x="334" y="144" width="28" height="28" fill="#f7fafc" stroke="#e2e8f0" stroke-width="1" rx="4"/>
  <rect x="362" y="144" width="28" height="28" fill="#f7fafc" stroke="#e2e8f0" stroke-width="1" rx="4"/>
  <rect x="222" y="172" width="28" height="28" fill="#f7fafc" stroke="#e2e8f0" stroke-width="1" rx="4"/>
  <rect x="250" y="172" width="28" height="28" fill="#f7fafc" stroke="#e2e8f0" stroke-width="1" rx="4"/>
  <rect x="278" y="172" width="28" height="28" fill="#f7fafc" stroke="#e2e8f0" stroke-width="1" rx="4"/>
  <rect x="306" y="172" width="28" height="28" fill="#f7fafc" stroke="#e2e8f0" stroke-width="1" rx="4"/>
  <rect x="334" y="172" width="28" height="28" fill="#f7fafc" stroke="#e2e8f0" stroke-width="1" rx="4"/>
  <rect x="362" y="172" width="28" height="28" fill="#f7fafc" stroke="#e2e8f0" stroke-width="1" rx="4"/>
  <path d="M 405 116 L 421 116 M 417 112 L 421 116 L 417 120" stroke="#a0aec0" stroke-width="2" fill="none"/>
  <text x="520" y="16" text-anchor="middle">Gen 2</text>
  <rect x="436" y="32" width="28" height="28" fill="#f7fafc" stroke="#e2e8f0" stroke-width="1" rx="4"/>
  <rect x="464" y="32" width="28" height="28" fill="#f7fafc" stroke="#e2e8f0" stroke-width="1" rx="4"/>
  <rect x="492" y="32" width="28" height="28" fill="#f7fafc" stroke="#e2e8f0" stroke-width="1" rx="4"/>
  <rect x="520" y="32" width="28" height="28" fill="#f7fafc" stroke="#e2e8f0" stroke-width="1" rx="4"/>
  <rect x="548" y="32" width="28" height="28" fill="#f7fafc" stroke="#e2e8f0" stroke-width="1" rx="4"/>
  <rect x="576" y="32" width="28" height="28" fill="#f7fafc" stroke="#e2e8f0" stroke-width="1" rx="4"/>
  <rect x="436" y="60" width="28" height="28" fill="#f7fafc" stroke="#e2e8f0" stroke-width="1" rx="4"/>
  <rect x="464" y="60" width="28" height="28" fill="#f7fafc" stroke="#e2e8f0" stroke-width="1" rx="4"/>
  <rect x="492" y="60" width="28" height="28" fill="#2d3748" stroke="#e2e8f0" stroke-width="1" rx="4"/>
  <rect x="520" y="60" width="28" height="28" fill="#f7fafc" stroke="#e2e8f0" stroke-width="1" rx="4"/>
  <rect x="548" y="60" width="28" height="28" fill="#f7fafc" stroke="#e2e8f0" stroke-width="1" rx="4"/>
  <rect x="576" y="60" width="28" height="28" fill="#f7fafc" stroke="#e2e8f0" stroke-width="1" rx="4"/>
  <rect x="436" y="88" width="28" height="28" fill="#2d3748" stroke="#e2e8f0" stroke-width="1" rx="4"/>
  <rect x="464" y="88" width="28" height="28" fill="#f7fafc" stroke="#e2e8f0" stroke-width="1" rx="4"/>
  <rect x="492" y="88" width="28" height="28" fill="#2d3748" stroke="#e2e8f0" stroke-width="1" rx="4"/>
  <rect x="520" y="88" width="28" height="28" fill="#f7fafc" stroke="#e2e8f0" stroke-width="1" rx="4"/>
  <rect x="548" y="88" width="28" height="28" fill="#f7fafc" stroke="#e2e8f0" stroke-width="1" rx="4"/>
  <rect x="576" y="88" width="28" height="28" fill="#f7fafc" stroke="#e2e8f0" stroke-width="1" rx="4"/>
  <rect x="436" y="116" width="28" height="28" fill="#f7fafc" stroke="#e2e8f0" stroke-width="1" rx="4"/>
  <rect x="464" y="116" width="28" height="28" fill="#2d3748" stroke="#e2e8f0" stroke-width="1" rx="4"/>
  <rect x="492" y="116" width="28" height="28" fill="#2d3748" stroke="#e2e8f0" stroke-width="1" rx="4"/>
  <rect x="520" y="116" width="28" height="28" fill="#f7fafc" stroke="#e2e8f0" stroke-width="1" rx="4"/>
  <rect x="548" y="116" width="28" height="28" fill="#f7fafc" stroke="#e2e8f0" stroke-width="1" rx="4"/>
  <rect x="576" y="116" width="28" height="28" fill="#f7fafc" stroke="#e2e8f0" stroke-width="1" rx="4"/>
  <rect x="436" y="144" width="28" height="28" fill="#f7fafc" stroke="#e2e8f0" stroke-width="1" rx="4"/>
  <rect x="464" y="144" width="28" height="28" fill="#f7fafc" stroke="#e2e8f0" stroke-width="1" rx="4"/>
  <rect x="492" y="144" width="28" height="28" fill="#f7fafc" stroke="#e2e8f0" stroke-width="1" rx="4"/>
  <rect x="520" y="144" width="28" height="28" fill="#f7fafc" stroke="#e2e8f0" stroke-width="1" rx="4"/>
  <rect x="548" y="144" width="28" height="28" fill="#f7fafc" stroke="#e2e8f0" stroke-width="1" rx="4"/>
  <rect x="576" y="144" width="28" height="28" fill="#f7fafc" stroke="#e2e8f0" stroke-width="1" rx="4"/>
  <rect x="436" y="172" width="28" height="28" fill="#f7fafc" stroke="#e2e8f0" stroke-width="1" rx="4"/>
  <rect x="464" y="172" width="28" height="28" fill="#f7fafc" stroke="#e2e8f0" stroke-width="1" rx="4"/>
  <rect x="492" y="172" width="28" height="28" fill="#f7fafc" stroke="#e2e8f0" stroke-width="1" rx="4"/>
  <rect x="520" y="172" width="28" height="28" fill="#f7fafc" stroke="#e2e8f0" stroke-width="1" rx="4"/>
  <rect x="548" y="172" width="28" height="28" fill="#f7fafc" stroke="#e2e8f0" stroke-width="1" rx="4"/>
  <rect x="576" y="172" width="28" height="28" fill="#f7fafc" stroke="#e2e8f0" stroke-width="1" rx="4"/>
  <path d="M 619 116 L 635 116 M 631 112 L 635 116 L 631 120" stroke="#a0aec0" stroke-width="2" fill="none"/>
  <text x="734" y="16" text-anchor="middle">Gen 3</text>
  <rect x="650" y="32" width="28" height="28" fill="#f7fafc" stroke="#e2e8f0" stroke-width="1" rx="4"/>
  <rect x="678" y="32" width="28" height="28" fill="#f7fafc" stroke="#e2e8f0" stroke-width="1" rx="4"/>
  <rect x="706" y="32" width="28" height="28" fill="#f7fafc" stroke="#e2e8f0" stroke-width="1" rx="4"/>
  <rect x="734" y="32" width="28" height="28" fill="#f7fafc" stroke="#e2e8f0" stroke-width="1" rx="4"/>
  <rect x="762" y="32" width="28" height="28" fill="#f7fafc" stroke="#e2e8f0" stroke-width="1" rx="4"/>
  <rect x="790" y="32" width="28" height="28" fill="#f7fafc" stroke="#e2e8f0" stroke-width="1" rx="4"/>
  <rect x="650" y="60" width="28" height="28" fill="#f7fafc" stroke="#e2e8f0" stroke-width="1" rx="4"/>
  <rect x="678" y="60" width="28" height="28" fill="#2d3748" stroke="#e2e8f0" stroke-width="1" rx="4"/>
  <rect x="706" y="60" width="28" height="28" fill="#f7fafc" stroke="#e2e8f0" stroke-width="1" rx="4"/>
  <rect x="734" y="60" width="28" height="28" fill="#f7fafc" stroke="#e2e8f0" stroke-width="1" rx="4"/>
  <rect x="762" y="60" width="28" height="28" fill="#f7fafc" stroke="#e2e8f0" stroke-width="1" rx="4"/>
  <rect x="790" y="60" width="28" height="28" fill="#f7fafc" stroke="#e2e8f0" stroke-width="1" rx="4"/>
  <rect x="650" y="88" width="28" height="28" fill="#f7fafc" stroke="#e2e8f0" stroke-width="1" rx="4"/>
  <rect x="678" y="88" width="28" height="28" fill="#f7fafc" stroke="#e2e8f0" stroke-width="1" rx="4"/>
  <rect x="706" y="88" width="28" height="28" fill="#2d3748" stroke="#e2e8f0" stroke-width="1" rx="4"/>
  <rect x="734" y="88" width="28" height="28" fill="#2d3748" stroke="#e2e8f0" stroke-width="1" rx="4"/>
  <rect x="762" y="88" width="28" height="28" fill="#f7fafc" stroke="#e2e8f0" stroke-width="1" rx="4"/>
  <rect x="790" y="88" width="28" height="28" fill="#f7fafc" stroke="#e2e8f0" stroke-width="1" rx="4"/>
  <rect x="650" y="116" width="28" height="28" fill="#f7fafc" stroke="#e2e8f0" stroke-width="1" rx="4"/>
  <rect x="678" y="116" width="28" height="28" fill="#2d3748" stroke="#e2e8f0" stroke-width="1" rx="4"/>
  <rect x="706" y="116" width="28" height="28" fill="#2d3748" stroke="#e2e8f0" stroke-width="1" rx="4"/>
  <rect x="734" y="116" width="28" height="28" fill="#f7fafc" stroke="#e2e8f0" stroke-width="1" rx="4"/>
  <rect x="762" y="116" width="28" height="28" fill="#f7fafc" stroke="#e2e8f0" stroke-width="1" rx="4"/>
  <rect x="790" y="116" width="28" height="28" fill="#f7fafc" stroke="#e2e8f0" stroke-width="1" rx="4"/>
  <rect x="650" y="144" width="28" height="28" fill="#f7fafc" stroke="#e2e8f0" stroke-width="1" rx="4"/>
  <rect x="678" y="144" width="28" height="28" fill="#f7fafc" stroke="#e2e8f0" stroke-width="1" rx="4"/>
  <rect x="706" y="144" width="28" height="28" fill="#f7fafc" stroke="#e2e8f0" stroke-width="1" rx="4"/>
  <rect x="734" y="144" width="28" height="28" fill="#f7fafc" stroke="#e2e8f0" stroke-width="1" rx="4"/>
  <rect x="762" y="144" width="28" height="28" fill="#f7fafc" stroke="#e2e8f0" stroke-width="1" rx="4"/>
  <rect x="790" y="144" width="28" height="28" fill="#f7fafc" stroke="#e2e8f0" stroke-width="1" rx="4"/>
  <rect x="650" y="172" width="28" height="28" fill="#f7fafc" stroke="#e2e8f0" stroke-width="1" rx="4"/>
  <rect x="678" y="172" width="28" height="28" fill="#f7fafc" stroke="#e2e8f0" stroke-width="1" rx="4"/>
  <rect x="706" y="172" width="28" height="28" fill="#f7fafc" stroke="#e2e8f0" stroke-width="1" rx="4"/>
  <rect x="734" y="172" width="28" height="28" fill="#f7fafc" stroke="#e2e8f0" stroke-width="1" rx="4"/>
  <rect x="762" y="172" width="28" height="28" fill="#f7fafc" stroke="#e2e8f0" stroke-width="1" rx="4"/>
  <rect x="790" y="172" width="28" height="28" fill="#f7fafc" stroke="#e2e8f0" stroke-width="1" rx="4"/>
  <path d="M 833 116 L 849 116 M 845 112 L 849 116 L 845 120" stroke="#a0aec0" stroke-width="2" fill="none"/>
  <text x="948" y="16" text-anchor="middle">Gen 4</text>
  <rect x="864" y="32" width="28" height="28" fill="#f7fafc" stroke="#e2e8f0" stroke-width="1" rx="4"/>
  <rect x="892" y="32" width="28" height="28" fill="#f7fafc" stroke="#e2e8f0" stroke-width="1" rx="4"/>
  <rect x="920" y="32" width="28" height="28" fill="#f7fafc" stroke="#e2e8f0" stroke-width="1" rx="4"/>
  <rect x="948" y="32" width="28" height="28" fill="#f7fafc" stroke="#e2e8f0" stroke-width="1" rx="4"/>
  <rect x="976" y="32" width="28" height="28" fill="#f7fafc" stroke="#e2e8f0" stroke-width="1" rx="4"/>
  <rect x="1004" y="32" width="28" height="28" fill="#f7fafc" stroke="#e2e8f0" stroke-width="1" rx="4"/>
  <rect x="864" y="60" width="28" height="28" fill="#f7fafc" stroke="#e2e8f0" stroke-width="1" rx="4"/>
  <rect x="892" y="60" width="28" height="28" fill="#f7fafc" stroke="#e2e8f0" stroke-width="1" rx="4"/>
  <rect x="920" y="60" width="28" height="28" fill="#2d3748" stroke="#e2e8f0" stroke-width="1" rx="4"/>
  <rect x="948" y="60" width="28" height="28" fill="#f7fafc" stroke="#e2e8f0" stroke-width="1" rx="4"/>
  <rect x="976" y="60" width="28" height="28" fill="#f7fafc" stroke="#e2e8f0" stroke-width="1" rx="4"/>
  <rect x="1004" y="60" width="28" height="28" fill="#f7fafc" stroke="#e2e8f0" stroke-width="1" rx="4"/>
  <rect x="864" y="88" width="28" height="28" fill="#f7fafc" stroke="#e2e8f0" stroke-width="1" rx="4"/>
  <rect x="892" y="88" width="28" height="28" fill="#f7fafc" stroke="#e2e8f0" stroke-width="1" rx="4"/>
  <rect x="920" y="88" width="28" height="28" fill="#f7fafc" stroke="#e2e8f0" stroke-width="1" rx="4"/>
  <rect x="948" y="88" width="28" height="28" fill="#2d3748" stroke="#e2e8f0" stroke-width="1" rx="4"/>
  <rect x="976" y="88" width="28" height="28" fill="#f7fafc" stroke="#e2e8f0" stroke-width="1" rx="4"/>
  <rect x="1004" y="88" width="28" height="28" fill="#f7fafc" stroke="#e2e8f0" stroke-width="1" rx="4"/>
  <rect x="864" y="116" width="28" height="28" fill="#f7fafc" stroke="#e2e8f0" stroke-width="1" rx="4"/>
  <rect x="892" y="116" width="28" height="28" fill="#2d3748" stroke="#e2e8f0" stroke-width="1" rx="4"/>
  <rect x="920" y="116" width="28" height="28" fill="#2d3748" stroke="#e2e8f0" stroke-width="1" rx="4"/>
  <rect x="948" y="116" width="28" height="28" fill="#2d3748" stroke="#e2e8f0" stroke-width="1" rx="4"/>
  <rect x="976" y="116" width="28" height="28" fill="#f7fafc" stroke="#e2e8f0" stroke-width="1" rx="4"/>
  <rect x="1004" y="116" width="28" height="28" fill="#f7fafc" stroke="#e2e8f0" stroke-width="1" rx="4"/>
  <rect x="864" y="144" width="28" height="28" fill="#f7fafc" stroke="#e2e8f0" stroke-width="1" rx="4"/>
  <rect x="892" y="144" width="28" height="28" fill="#f7fafc" stroke="#e2e8f0" stroke-width="1" rx="4"/>
  <rect x="920" y="144" width="28" height="28" fill="#f7fafc" stroke="#e2e8f0" stroke-width="1" rx="4"/>
  <rect x="948" y="144" width="28" height="28" fill="#f7fafc" stroke="#e2e8f0" stroke-width="1" rx="4"/>
  <rect x="976" y="144" width="28" height="28" fill="#f7fafc" stroke="#e2e8f0" stroke-width="1" rx="4"/>
  <rect x="1004" y="144" width="28" height="28" fill="#f7fafc" stroke="#e2e8f0" stroke-width="1" rx="4"/>
  <rect x="864" y="172" width="28" height="28" fill="#f7fafc" stroke="#e2e8f0" stroke-width="1" rx="4"/>
  <rect x="892" y="172" width="28" height="28" fill="#f7fafc" stroke="#e2e8f0" stroke-width="1" rx="4"/>
  <rect x="920" y="172" width="28" height="28" fill="#f7fafc" stroke="#e2e8f0" stroke-width="1" rx="4"/>
  <rect x="948" y="172" width="28" height="28" fill="#f7fafc" stroke="#e2e8f0" stroke-width="1" rx="4"/>
  <rect x="976" y="172" width="28" height="28" fill="#f7fafc" stroke="#e2e8f0" stroke-width="1" rx="4"/>
  <rect x="1004" y="172" width="28" height="28" fill="#f7fafc" stroke="#e2e8f0" stroke-width="1" rx="4"/>
</svg>