<svg xmlns="http://www.w3.org/2000/svg" width="342" height="180">
  <rect width="342" height="180" fill="white"/>
  <style>text { font-family: system-ui, sans-serif; font-size: 12px; fill: #4a5568; }</style>
  <text x="78" y="16" text-anchor="middle">Gen 0</text>
  <rect x="8" y="32" width="28" height="28" fill="#f7fafc" stroke="#e2e8f0" stroke-width="1" rx="4"/>
  <rect x="36" y="32" width="28" height="28" fill="#f7fafc" stroke="#e2e8f0" stroke-width="1" rx="4"/>
  <rect x="64" y="32" width="28" height="28" fill="#f7fafc" stroke="#e2e8f0" stroke-width="1" rx="4"/>
  <rect x="92" y="32" width="28" height="28" fill="#f7fafc" stroke="#e2e8f0" stroke-width="1" rx="4"/>
  <rect x="120" y="32" width="28" height="28" fill="#f7fafc" stroke="#e2e8f0" stroke-width="1" rx="4"/>
  <rect x="8" y="60" width="28" height="28" fill="#f7fafc" stroke="#e2e8f0" stroke-width="1" rx="4"/>
  <rect x="36" y="60" width="28" height="28" fill="#f7fafc" stroke="#e2e8f0" stroke-width="1" rx="4"/>
  <rect x="64" y="60" width="28" height="28" fill="#2d3748" stroke="#e2e8f0" stroke-width="1" rx="4"/>
  <rect x="92" y="60" width="28" height="28" fill="#f7fafc" stroke="#e2e8f0" stroke-width="1" rx="4"/>
  <rect x="120" y="60" width="28" height="28" fill="#f7fafc" stroke="#e2e8f0" stroke-width="1" rx="4"/>
  <rect x="8" y="88" width="28" height="28" fill="#f7fafc" stroke="#e2e8f0" stroke-width="1" rx="4"/>
  <rect x="36" y="88" width="28" height="28" fill="#f7fafc" stroke="#e2e8f0" stroke-width="1" rx="4"/>
  <rect x="64" y="88" width="28" height="28" fill="#2d3748" stroke="#e2e8f0" stroke-width="1" rx="4"/>
  <rect x="92" y="88" width="28" height="28" fill="#f7fafc" stroke="#e2e8f0" stroke-width="1" rx="4"/>
  <rect x="120" y="88" width="28" height="28" fill="#f7fafc" stroke="#e2e8f0" stroke-width="1" rx="4"/>
  <rect x="8" y="116" width="28" height="28" fill="#f7fafc" stroke="#e2e8f0" stroke-width="1" rx="4"/>
  <rect x="36" y="116" width="28" height="28" fill="#f7fafc" stroke="#e2e8f0" stroke-width="1" rx="4"/>
  <rect x="64" y="116" width="28" height="28" fill="#2d3748" stroke="#e2e8f0" stroke-width="1" rx="4"/>
  <rect x="92" y="116" width="28" height="28" fill="#f7fafc" stroke="#e2e8f0" stroke-width="1" rx="4"/>
  <rect x="120" y="116" width="28" height="28" fill="#f7fafc" stroke="#e2e8f0" stroke-width="1" rx="4"/>
  <rect x="8" y="144" width="28" height="28" fill="#f7fafc" stroke="#e2e8f0" stroke-width="1" rx="4"/>
  <rect x="36" y="144" width="28" height="28" fill="#f7fafc" stroke="#e2e8f0" stroke-width="1" rx="4"/>
  <rect x="64" y="144" width="28" height="28" fill="#f7fafc" stroke="#e2e8f0" stroke-width="1" rx="4"/>
  <rect x="92" y="144" width="28" height="28" fill="#f7fafc" stroke="#e2e8f0" stroke-width="1" rx="4"/>
  <rect x="120" y="144" width="28" height="28" fill="#f7fafc" stroke="#e2e8f0" stroke-width="1" rx="4"/>
  <path d="M 163 102 L 179 102 M 175 98 L 179 102 L 175 106" stroke="#a0aec0" stroke-width="2" fill="none"/>
  <text x="264" y="16" text-anchor="middle">Gen 1</text>
  <rect x="194" y="32" width="28" height="28" fill="#f7fafc" stroke="#e2e8f0" stroke-width="1" rx="4"/>
  <rect x="222" y="32" width="28" height="28" fill="#f7fafc" stroke="#e2e8f0" stroke-width="1" rx="4"/>
  <rect x="250" y="32" width="28" height="28" fill="#f7fafc" stroke="#e2e8f0" stroke-width="1" rx="4"/>
  <rect x="278" y="32" width="28" height="28" fill="#f7fafc" stroke="#e2e8f0" stroke-width="1" rx="4"/>
  <rect x="306" y="32" width="28" height="28" fill="#f7fafc" stroke="#e2e8f0" stroke-width="1" rx="4"/>
  <rect x="194" y="60" width="28" height="28" fill="#f7fafc" stroke="#e2e8f0" stroke-width="1" rx="4"/>
  <rect x="222" y="60" width="28" height="28" fill="#f7fafc" stroke="#e2e8f0" stroke-width="1" rx="4"/>
  <rect x="250" y="60" width="28" height="28" fill="#f7fafc" stroke="#e2e8f0" stroke-width="1" rx="4"/>
  <rect x="278" y="60" width="28" height="28" fill="#f7fafc" stroke="#e2e8f0" stroke-width="1" rx="4"/>
  <rect x="306" y="60" width="28" height="28" fill="#f7fafc" stroke="#e2e8f0" stroke-width="1" rx="4"/>
  <rect x="194" y="88" width="28" height="28" fill="#f7fafc" stroke="#e2e8f0" stroke-width="1" rx="4"/>
  <rect x="222" y="88" width="28" height="28" fill="#2d3748" stroke="#e2e8f0" stroke-width="1" rx="4"/>
  <rect x="250" y="88" width="28" height="28" fill="#2d3748" stroke="#e2e8f0" stroke-width="1" rx="4"/>
  <rect x="278" y="88" width="28" height="28" fill="#2d3748" stroke="#e2e8f0" stroke-width="1" rx="4"/>
  <rect x="306" y="88" width="28" height="28" fill="#f7fafc" stroke="#e2e8f0" stroke-width="1" rx="4"/>
  <rect x="194" y="116" width="28" height="28" fill="#f7fafc" stroke="#e2e8f0" stroke-width="1" rx="4"/>
  <rect x="222" y="116" width="28" height="28" fill="#f7fafc" stroke="#e2e8f0" stroke-width="1" rx="4"/>
  <rect x="250" y="116" width="28" height="28" fill="#f7fafc" stroke="#e2e8f0" stroke-width="1" rx="4"/>
  <rect x="278" y="116" width="28" height="28" fill="#f7fafc" stroke="#e2e8f0" stroke-width="1" rx="4"/>
  <rect x="306" y="116" width="28" height="28" fill="#f7fafc" stroke="#e2e8f0" stroke-width="1" rx="4"/>
  <rect x="194" y="144" width="28" height="28" fill="#f7fafc" stroke="#e2e8f0" stroke-width="1" rx="4"/>
  <rect x="222" y="144" width="28" height="28" fill="#f7fafc" stroke="#e2e8f0" stroke-width="1" rx="4"/>
  <rect x="250" y="144" width="28" height="28" fill="#f7fafc" stroke="#e2e8f0" stroke-width="1" rx="4"/>
  <rect x="278" y="144" width="28" height="28" fill="#f7fafc" stroke="#e2e8f0" stroke-width="1" rx="4"/>
  <rect x="306" y="144" width="28" height="28" fill="#f7fafc" stroke="#e2e8f0" stroke-width="1" rx="4"/>
</svg>